M48
; DRILL file {KiCad (5.1.2)-2} date 11/19/2019 1:43:09 PM
; FORMAT={-:-/ absolute / inch / decimal}
; #@! TF.CreationDate,2019-11-19T13:43:09-05:00
; #@! TF.GenerationSoftware,Kicad,Pcbnew,(5.1.2)-2
FMAT,2
INCH
T1C0.0394
T2C0.1260
%
G90
G05
T1
X0.5023Y1.0683
X0.6015Y1.0683
X0.6991Y1.0683
X2.4409Y0.6875
X2.4409Y0.5883
X2.4409Y0.4907
X0.0915Y1.0885
X0.0915Y0.9783
X0.4815Y0.4883
X0.8815Y0.4883
X1.1632Y1.8884
X1.1632Y1.7884
X1.1632Y1.6884
X1.1632Y1.5884
X1.1632Y1.4884
X1.1632Y1.3884
X1.1632Y1.2884
X1.1632Y1.1884
X1.1632Y1.0884
X1.1632Y0.9884
X1.1632Y0.8884
X1.1632Y0.7884
X1.1632Y0.6884
X1.1632Y0.5884
X1.1632Y0.4884
X2.1632Y1.8884
X2.1632Y1.7884
X2.1632Y1.6884
X2.1632Y1.5884
X2.1632Y1.4884
X2.1632Y1.3884
X2.1632Y1.2884
X2.1632Y1.1884
X2.1632Y1.0884
X2.1632Y0.9884
X2.1632Y0.8884
X2.1632Y0.7884
X2.1632Y0.6884
X2.1632Y0.5884
X2.1632Y0.4884
X0.0915Y0.5985
X0.0915Y0.4883
X0.0913Y1.6433
X0.2015Y1.6433
X0.5615Y1.5833
X0.9615Y1.5833
T2
X2.5197Y2.0472
X0.0715Y0.1969
T0
M30
