G04 #@! TF.GenerationSoftware,KiCad,Pcbnew,(5.1.2)-2*
G04 #@! TF.CreationDate,2019-11-19T13:43:08-05:00*
G04 #@! TF.ProjectId,dak-ir-pcb,64616b2d-6972-42d7-9063-622e6b696361,rev?*
G04 #@! TF.SameCoordinates,PX39b2820PY54e0840*
G04 #@! TF.FileFunction,Copper,L2,Bot*
G04 #@! TF.FilePolarity,Positive*
%FSLAX46Y46*%
G04 Gerber Fmt 4.6, Leading zero omitted, Abs format (unit mm)*
G04 Created by KiCad (PCBNEW (5.1.2)-2) date 2019-11-19 13:43:08*
%MOMM*%
%LPD*%
G04 APERTURE LIST*
%ADD10C,0.750000*%
%ADD11O,2.150000X4.000000*%
%ADD12O,4.000000X2.150000*%
%ADD13C,1.400000*%
G04 APERTURE END LIST*
D10*
X19928571Y50642858D02*
X19928571Y53642858D01*
X19214285Y53642858D01*
X18785714Y53500000D01*
X18500000Y53214286D01*
X18357142Y52928572D01*
X18214285Y52357143D01*
X18214285Y51928572D01*
X18357142Y51357143D01*
X18500000Y51071429D01*
X18785714Y50785715D01*
X19214285Y50642858D01*
X19928571Y50642858D01*
X17071428Y51500000D02*
X15642857Y51500000D01*
X17357142Y50642858D02*
X16357142Y53642858D01*
X15357142Y50642858D01*
X14357142Y50642858D02*
X14357142Y53642858D01*
X12642857Y50642858D02*
X13928571Y52357143D01*
X12642857Y53642858D02*
X14357142Y51928572D01*
X9071428Y50642858D02*
X9071428Y53642858D01*
X5928571Y50642858D02*
X6928571Y52071429D01*
X7642857Y50642858D02*
X7642857Y53642858D01*
X6500000Y53642858D01*
X6214285Y53500000D01*
X6071428Y53357143D01*
X5928571Y53071429D01*
X5928571Y52642858D01*
X6071428Y52357143D01*
X6214285Y52214286D01*
X6500000Y52071429D01*
X7642857Y52071429D01*
D11*
X15278000Y27135000D03*
X17758000Y27135000D03*
X12758000Y27135000D03*
D12*
X62000000Y14943000D03*
X62000000Y12463000D03*
X62000000Y17463000D03*
X2324000Y15203000D03*
X2324000Y12403000D03*
X2324000Y27649000D03*
X2324000Y24849000D03*
D11*
X5118000Y41740000D03*
X2318000Y41740000D03*
X12230000Y12403000D03*
X22390000Y12403000D03*
X24422000Y40216000D03*
X14262000Y40216000D03*
D12*
X29545000Y47965000D03*
X29545000Y45425000D03*
X29545000Y42885000D03*
X29545000Y40345000D03*
X29545000Y37805000D03*
X29545000Y35265000D03*
X29545000Y32725000D03*
X29545000Y30185000D03*
X29545000Y27645000D03*
X29545000Y25105000D03*
X29545000Y22565000D03*
X29545000Y20025000D03*
X29545000Y17485000D03*
X29545000Y14945000D03*
X29545000Y12405000D03*
X54945000Y47965000D03*
X54945000Y45425000D03*
X54945000Y42885000D03*
X54945000Y40345000D03*
X54945000Y37805000D03*
X54945000Y35265000D03*
X54945000Y32725000D03*
X54945000Y30185000D03*
X54945000Y27645000D03*
X54945000Y25105000D03*
X54945000Y22565000D03*
X54945000Y20025000D03*
X54945000Y17485000D03*
X54945000Y14945000D03*
X54945000Y12405000D03*
D13*
X2324000Y41734000D02*
X2318000Y41740000D01*
X2324000Y27649000D02*
X2324000Y41734000D01*
X10283000Y27135000D02*
X12758000Y27135000D01*
X5118000Y32300000D02*
X10283000Y27135000D01*
X5118000Y41740000D02*
X5118000Y32300000D01*
X2324000Y15203000D02*
X2324000Y24849000D01*
X2324000Y12403000D02*
X12230000Y12403000D01*
X54967000Y17463000D02*
X54945000Y17485000D01*
X62000000Y17463000D02*
X54967000Y17463000D01*
X55003000Y12463000D02*
X54945000Y12405000D01*
X62000000Y12463000D02*
X55003000Y12463000D01*
X54947000Y14943000D02*
X54945000Y14945000D01*
X61998000Y14945000D02*
X62000000Y14943000D01*
X54945000Y14945000D02*
X61998000Y14945000D01*
X26145000Y14945000D02*
X29545000Y14945000D01*
X17758000Y23332000D02*
X26145000Y14945000D01*
X17758000Y27135000D02*
X17758000Y23332000D01*
X15278000Y39200000D02*
X15278000Y27135000D01*
X14262000Y40216000D02*
X15278000Y39200000D01*
X29416000Y40216000D02*
X29545000Y40345000D01*
X24422000Y40216000D02*
X29416000Y40216000D01*
X22392000Y12405000D02*
X22390000Y12403000D01*
X29545000Y12405000D02*
X22392000Y12405000D01*
M02*
